HIERARCHY
ROOT Hips
{
 OFFSET 0.000000 0.000000 0.000000
 CHANNELS 6 Xposition Yposition Zposition Yrotation Xrotation Zrotation
 JOINT Chest
 {
  OFFSET 0.000000 11.395451 -0.039534
  CHANNELS 3 Yrotation Xrotation Zrotation
  JOINT Chest2
  {
   OFFSET 0.000000 9.398669 0.071813
   CHANNELS 3 Yrotation Xrotation Zrotation
   JOINT Chest3
   {
    OFFSET 0.000000 8.489801 0.000000
    CHANNELS 3 Yrotation Xrotation Zrotation
    JOINT Chest4
    {
     OFFSET 0.000000 8.489801 0.000000
     CHANNELS 3 Yrotation Xrotation Zrotation
     JOINT Neck
     {
      OFFSET 0.000000 12.404889 0.000000
      CHANNELS 3 Yrotation Xrotation Zrotation
      JOINT Head
      {
       OFFSET 0.000000 8.903270 0.092239
       CHANNELS 3 Yrotation Xrotation Zrotation
       End Site
       {
        OFFSET 0.000000 17.592497 0.007158
       }
      }
     }
     JOINT RightCollar
     {
      OFFSET -3.196775 6.966722 0.000000
      CHANNELS 3 Yrotation Xrotation Zrotation
      JOINT RightShoulder
      {
       OFFSET -15.955896 0.000000 0.000000
       CHANNELS 3 Yrotation Xrotation Zrotation
       JOINT RightElbow
       {
        OFFSET -24.792472 0.000000 0.000000
        CHANNELS 3 Yrotation Xrotation Zrotation
        JOINT RightWrist
        {
         OFFSET -20.900115 0.000000 0.025002
         CHANNELS 3 Yrotation Xrotation Zrotation
         End Site
         {
          OFFSET -16.056692 0.000000 0.000000
         }
        }
       }
      }
     }
     JOINT LeftCollar
     {
      OFFSET 3.196775 6.966722 0.000000
      CHANNELS 3 Yrotation Xrotation Zrotation
      JOINT LeftShoulder
      {
       OFFSET 15.955896 0.000000 0.000000
       CHANNELS 3 Yrotation Xrotation Zrotation
       JOINT LeftElbow
       {
        OFFSET 24.792472 0.000000 0.000000
        CHANNELS 3 Yrotation Xrotation Zrotation
        JOINT LeftWrist
        {
         OFFSET 20.900115 0.000000 0.025002
         CHANNELS 3 Yrotation Xrotation Zrotation
         End Site
         {
          OFFSET 16.056692 0.000000 0.000000
         }
        }
       }
      }
     }
    }
   }
  }
 }
 JOINT RightHip
 {
  OFFSET -9.568995 0.193718 0.019767
  CHANNELS 3 Yrotation Xrotation Zrotation
  JOINT RightKnee
  {
   OFFSET 0.000000 -56.649296 0.015402
   CHANNELS 3 Yrotation Xrotation Zrotation
   JOINT RightAnkle
   {
    OFFSET 0.000000 -41.365147 0.021264
    CHANNELS 3 Yrotation Xrotation Zrotation
    JOINT RightToe
    {
     OFFSET 0.000000 -7.465940 17.672538
     CHANNELS 3 Yrotation Xrotation Zrotation
     End Site
     {
      OFFSET 0.000000 -1.736315 7.837145
     }
    }
   }
  }
 }
 JOINT LeftHip
 {
  OFFSET 9.568995 0.193718 0.019767
  CHANNELS 3 Yrotation Xrotation Zrotation
  JOINT LeftKnee
  {
   OFFSET 0.000000 -56.649296 0.015402
   CHANNELS 3 Yrotation Xrotation Zrotation
   JOINT LeftAnkle
   {
    OFFSET 0.000000 -41.365147 0.021264
    CHANNELS 3 Yrotation Xrotation Zrotation
    JOINT LeftToe
    {
     OFFSET 0.000000 -7.465940 17.672538
     CHANNELS 3 Yrotation Xrotation Zrotation
     End Site
     {
      OFFSET 0.000000 -1.736315 7.837145
     }
    }
   }
  }
 }
}
MOTION
Frames: 8
Frame Time: 0.016667
8.582910 105.683116 209.820661 2.283635 0.458786 -0.556562 0.977217 5.842160 1.847906 0.410423 2.600511 0.807916 0.410411 2.600593 0.807945 0.304307 1.951047 0.604127 -7.667612 18.997967 3.317399 -15.077478 -0.110181 8.472252 0.784962 5.737946 5.864408 24.203524 -26.599928 50.171057 36.384322 -39.747303 26.373323 -15.808746 -18.509149 8.094883 0.668793 3.946963 -6.175601 15.123866 -12.772222 -54.321656 -33.793988 -61.150318 -43.912848 15.148469 -9.230739 2.160427 1.043803 -2.837320 6.379916 9.240104 21.752085 -0.970387 16.802634 -12.524499 -4.264951 0.035854 -2.333135 -5.269665 -2.994712 -21.003466 6.699182 3.909308 22.968148 -0.668950 1.681075 -4.879109 -5.154672 -0.000000 0.000000 -0.000000
8.772101 105.754256 210.716155 0.559437 0.677747 -0.505680 0.837785 5.815348 1.837347 0.348781 2.587986 0.805033 0.348768 2.588045 0.805053 0.258112 1.941538 0.602224 -7.259015 18.940069 3.147130 -14.285187 -0.298268 8.046072 0.759182 5.434880 5.936178 23.707198 -26.203525 50.427210 36.128756 -39.497504 26.736866 -15.813294 -18.495042 8.087522 0.684103 3.813285 -6.301782 15.252411 -12.709226 -54.420990 -33.684639 -61.119153 -43.929930 15.457829 -8.980350 2.314107 0.991243 -2.658116 6.143397 9.784665 21.894186 -1.036571 17.990701 -12.428002 -4.228989 0.048658 -2.665336 -5.604297 -1.078292 -21.254881 4.984857 -2.961306 21.336502 -0.920766 3.182465 -5.246699 -6.313699 -0.000000 0.000000 -0.000000
8.978589 105.836151 211.640683 -1.101227 0.919023 -0.441900 0.712908 5.797513 1.829575 0.293545 2.579461 0.803155 0.293545 2.579461 0.803155 0.216730 1.934986 0.601025 -6.883619 18.841158 2.982336 -13.558567 -0.552351 7.643439 0.755324 5.198724 5.954840 23.203855 -25.848535 50.617132 35.929042 -39.302875 27.040268 -15.793637 -18.492022 8.105677 0.705426 3.732273 -6.413865 15.274860 -12.715539 -54.580278 -33.659006 -61.050609 -43.871349 15.719800 -8.771469 2.461665 1.008844 -2.547633 5.873732 10.239977 22.116749 -1.102220 19.091217 -12.254265 -4.154214 0.074877 -3.179672 -5.973356 0.200881 -21.455363 3.508072 -8.067228 19.856995 -0.860415 4.393106 -5.491358 -7.102714 0.000000 0.000000 0.000000
9.231209 105.935851 212.583409 -2.731202 1.194873 -0.335568 0.622218 5.803955 1.821965 0.253387 2.581965 0.800902 0.253404 2.581970 0.800903 0.186647 1.936817 0.599504 -6.552973 18.675370 2.822731 -12.920825 -0.920521 7.270129 0.792224 5.082479 5.866369 22.680514 -25.608128 50.719603 35.789990 -39.193713 27.282161 -15.738037 -18.505013 8.156993 0.735703 3.743107 -6.515803 15.159372 -12.840181 -54.845869 -33.763904 -60.927625 -43.690599 15.894647 -8.610384 2.597313 1.190751 -2.551261 5.527998 10.557348 22.454748 -1.158455 20.076650 -11.986454 -4.026286 0.122289 -3.936054 -6.379524 -0.044313 -21.609809 2.603555 -9.687391 18.511068 -0.455100 4.633957 -5.353027 -7.270020 -0.000000 0.000000 -0.000000
9.501126 106.046305 213.555167 -4.297283 1.494937 -0.217875 0.545855 5.819475 1.815643 0.219513 2.588585 0.799037 0.219532 2.588607 0.799043 0.161247 1.941761 0.598253 -6.253457 18.468587 2.671310 -12.344331 -1.357687 6.923403 0.848035 5.027096 5.715499 22.146550 -25.417308 50.770950 35.698002 -39.144588 27.473685 -15.662184 -18.532135 8.236562 0.769097 3.808321 -6.610370 14.937891 -13.044963 -55.161833 -33.942841 -60.763762 -43.438808 16.019318 -8.486344 2.726963 1.443153 -2.624006 5.154565 10.785309 22.874660 -1.217680 20.975855 -11.642221 -3.862328 0.189695 -4.874941 -6.819117 -0.936748 -21.749236 1.957837 -9.602849 17.168811 0.127898 4.547919 -5.000391 -7.162099 0.000000 0.000000 0.000000
9.717434 106.143323 214.584563 -5.875514 1.772420 -0.137310 0.507939 5.822034 1.794572 0.202909 2.589516 0.790147 0.202909 2.589516 0.790147 0.148806 1.942404 0.591649 -5.967459 18.291787 2.537441 -11.793240 -1.733231 6.606941 0.919595 5.017783 5.596481 21.680291 -25.213374 50.809400 35.667443 -39.167113 27.553610 -15.591869 -18.556216 8.325792 0.788148 3.872252 -6.663006 14.642445 -13.213099 -55.405860 -34.157282 -60.607645 -43.175305 16.128683 -8.427909 2.863377 1.737413 -2.651270 4.843287 11.060290 23.290274 -1.256903 21.720494 -11.243397 -3.754473 0.273377 -5.926275 -7.229567 -1.846031 -21.776262 1.626666 -8.554577 15.762149 0.506170 3.888707 -4.694303 -7.282680 0.000000 0.000000 0.000000
9.847433 106.230786 215.672070 -7.494521 2.040339 -0.098963 0.525248 5.794726 1.745691 0.211277 2.577350 0.768264 0.211257 2.577324 0.768258 0.155161 1.933245 0.575201 -5.692234 18.164581 2.431132 -11.265206 -2.010348 6.337430 1.020879 5.042601 5.557493 21.319288 -24.945765 50.842501 35.712976 -39.296361 27.459366 -15.532290 -18.570457 8.424613 0.776330 3.906650 -6.652579 14.246390 -13.271114 -55.528063 -34.464204 -60.482938 -42.853575 16.228967 -8.469301 3.011827 2.021828 -2.613865 4.630422 11.514054 23.650364 -1.276545 22.234194 -10.766897 -3.729012 0.372507 -7.084325 -7.572670 -2.754156 -21.664421 1.802399 -5.744571 14.144805 0.391179 2.030308 -4.513752 -8.013901 0.000000 -0.000000 0.000000
9.923823 106.304812 216.817214 -9.126283 2.282745 -0.096416 0.580996 5.753192 1.682958 0.236962 2.559045 0.739796 0.236942 2.559033 0.739794 0.174565 1.919557 0.553760 -5.432257 18.067251 2.340530 -10.766913 -2.227526 6.097470 1.137136 5.117421 5.547116 21.025810 -24.663421 50.862731 35.817565 -39.502719 27.258353 -15.478019 -18.581477 8.532688 0.751191 3.943409 -6.599146 13.775953 -13.285665 -55.584805 -34.811131 -60.362724 -42.514251 16.311013 -8.576019 3.162636 2.348540 -2.526169 4.475844 12.014839 24.007655 -1.274440 22.587642 -10.239258 -3.756662 0.488723 -8.355334 -7.882686 -3.665725 -21.392909 2.269702 -1.959266 12.415586 -0.046603 -0.375173 -4.350471 -9.013534 0.000000 0.000000 0.000000
